<svg width="506" height="347" viewBox="0 0 506 347" fill="none" xmlns="http://www.w3.org/2000/svg">
<g clip-path="url(#clip0_37_28)">
<rect width="506" height="347" fill="#A1DCB9"/>
<rect x="204" y="35" width="11" height="65" fill="white"/>
<rect x="204" y="257" width="11" height="65" fill="white"/>
<rect x="397" y="35" width="11" height="287" fill="white"/>
<rect x="204" y="35" width="193" height="12" fill="white"/>
<rect x="209" y="310" width="193" height="12" fill="white"/>
<g filter="url(#filter0_d_37_28)">
<mask id="path-6-outside-1_37_28" maskUnits="userSpaceOnUse" x="58" y="106" width="322" height="147" fill="black">
<rect fill="white" x="58" y="106" width="322" height="147"/>
<path d="M105.76 141.93C110.38 143.25 114.01 145.47 116.65 148.59C119.29 151.71 120.61 155.31 120.61 159.39C120.61 163.17 119.08 166.74 116.02 170.1C113.02 173.4 109.24 176.04 104.68 178.02C100.18 180 95.89 180.99 91.81 180.99C88.81 180.99 85.87 180.84 82.99 180.54C78.19 180.24 74.47 180.09 71.83 180.09H60.4V177.3L68.86 170.64V115.92L59.5 112.86L61.3 109.26H71.74C77.2 109.26 82.57 109.08 87.85 108.72C91.93 108.48 94.93 108.36 96.85 108.36C100.87 108.36 104.41 109.14 107.47 110.7C110.53 112.26 112.87 114.39 114.49 117.09C116.17 119.73 117.01 122.7 117.01 126C117.01 129 115.96 131.88 113.86 134.64C111.82 137.34 109.12 139.71 105.76 141.75V141.93ZM104.86 130.5C104.86 125.76 103.6 121.89 101.08 118.89C98.56 115.89 94.81 114.39 89.83 114.39C86.23 114.39 82.99 115.41 80.11 117.45V141.3H92.98C96.7 141.3 99.61 140.37 101.71 138.51C103.81 136.59 104.86 133.89 104.86 130.41V130.5ZM94.33 174.42C98.65 174.42 102.07 173.34 104.59 171.18C107.17 169.02 108.46 166.11 108.46 162.45C108.46 157.77 107.08 153.99 104.32 151.11C101.62 148.23 97.57 146.7 92.17 146.52C91.75 146.58 91.18 146.61 90.46 146.61H80.11V172.08C84.13 173.7 88.87 174.51 94.33 174.51V174.42ZM193.516 180.18H176.776L156.976 148.23L152.746 145.17L154.096 142.47H159.136C163.216 142.47 166.426 141.45 168.766 139.41C171.166 137.31 172.366 134.46 172.366 130.86C172.366 126.12 171.046 122.19 168.406 119.07C165.766 115.89 161.926 114.3 156.886 114.3C153.526 114.3 150.436 115.29 147.616 117.27V173.34L157.066 176.58L155.266 180.18H127.906V177.39L136.366 170.73V116.01L127.006 112.95L128.806 109.35H139.246C144.706 109.35 150.076 109.17 155.356 108.81C159.196 108.57 162.046 108.45 163.906 108.45C167.926 108.45 171.496 109.26 174.616 110.88C177.796 112.5 180.226 114.69 181.906 117.45C183.646 120.21 184.516 123.24 184.516 126.54C184.516 129.54 183.586 132.42 181.726 135.18C179.866 137.88 177.406 140.25 174.346 142.29C171.346 144.27 168.166 145.77 164.806 146.79L170.656 148.77L184.606 171.27L195.316 176.58L193.516 180.18ZM250.989 180H196.989V177.21L205.449 170.55V116.01L196.089 112.86L197.889 109.26H250.089L254.949 107.64V128.34L252.249 129.24L241.539 113.31H216.699V141.84H230.829L237.399 130.32H240.189V157.68L236.589 159.48L230.919 145.89H216.699V175.95H241.179L253.149 158.22L255.849 159.12V181.62L250.989 180ZM361.01 118.17L339.41 177.12L330.05 181.71L315.74 139.32L302.33 177.12L292.97 181.71L269.84 117.99L261.29 112.86L263.09 109.26H287.75V112.05L281.18 117L299.9 169.74L313.31 132.3L308.45 117.9L300.17 112.86L301.97 109.26H328.43V112.05L320.42 118.26L337.16 169.56L355.7 118.26L339.68 112.86L341.48 109.26H368.84V112.05L361.01 118.17ZM90 193.58C92.4733 193.58 95.32 193.93 98.54 194.63C101.807 195.33 104.187 196.077 105.68 196.87V210.45H103.02C98.7267 203.123 93.0333 199.46 85.94 199.46C82.86 199.46 80.0367 200.37 77.47 202.19C74.95 203.963 72.9667 206.46 71.52 209.68C70.0733 212.853 69.35 216.423 69.35 220.39C69.35 224.963 70.05 229.14 71.45 232.92C72.8967 236.7 75.0667 239.733 77.96 242.02C80.9 244.307 84.5167 245.45 88.81 245.45C92.7767 245.45 98.47 242.463 105.89 236.49L107.99 239.85L95.11 249.86C93.3833 250.467 91.7033 250.863 90.07 251.05C88.4833 251.283 86.7567 251.4 84.89 251.4C79.99 251.4 75.65 250.21 71.87 247.83C68.09 245.45 65.15 242.183 63.05 238.03C60.95 233.83 59.9 229.07 59.9 223.75C59.9 218.29 61.4867 213.25 64.66 208.63C67.8333 203.963 71.7767 200.3 76.49 197.64C81.2033 194.933 85.7067 193.58 90 193.58ZM144.622 193.58C149.569 193.58 153.932 194.77 157.712 197.15C161.539 199.53 164.502 202.82 166.602 207.02C168.702 211.22 169.752 215.98 169.752 221.3C169.752 226.76 168.165 231.8 164.992 236.42C161.819 241.04 157.875 244.703 153.162 247.41C148.449 250.07 143.945 251.4 139.652 251.4C134.705 251.4 130.319 250.233 126.492 247.9C122.712 245.52 119.772 242.23 117.672 238.03C115.572 233.83 114.522 229.07 114.522 223.75C114.522 218.29 116.109 213.25 119.282 208.63C122.455 203.963 126.399 200.3 131.112 197.64C135.825 194.933 140.329 193.58 144.622 193.58ZM140.562 199.46C137.482 199.46 134.659 200.37 132.092 202.19C129.572 203.963 127.589 206.46 126.142 209.68C124.695 212.853 123.972 216.423 123.972 220.39C123.972 224.963 124.695 229.163 126.142 232.99C127.589 236.77 129.782 239.803 132.722 242.09C135.709 244.377 139.372 245.52 143.712 245.52C146.792 245.52 149.592 244.633 152.112 242.86C154.679 241.04 156.685 238.543 158.132 235.37C159.579 232.15 160.302 228.557 160.302 224.59C160.302 219.97 159.579 215.77 158.132 211.99C156.685 208.163 154.492 205.13 151.552 202.89C148.612 200.603 144.949 199.46 140.562 199.46ZM221.182 209.82L219.082 210.52L210.752 198.13H191.432V220.32H202.422L207.532 211.36H209.702V230.54L206.902 231.94L202.632 223.47H191.362V244.19L202.212 247.2L200.812 250H176.032V247.83L182.612 242.65V200.23L175.332 197.78L176.732 194.98H217.332L221.182 193.72V209.82ZM272.591 209.82L270.491 210.52L262.161 198.13H242.841V220.32H253.831L258.941 211.36H261.111V230.54L258.311 231.94L254.041 223.47H242.771V244.19L253.621 247.2L252.221 250H227.441V247.83L234.021 242.65V200.23L226.741 197.78L228.141 194.98H268.741L272.591 193.72V209.82ZM320.85 250H278.85V247.83L285.43 242.65V200.23L278.15 197.78L279.55 194.98H320.15L323.93 193.72V209.82L321.83 210.52L313.5 198.13H294.18V220.32H305.17L310.28 211.36H312.45V232.64L309.65 234.04L305.24 223.47H294.18V246.85H313.22L322.53 233.06L324.63 233.76V251.26L320.85 250ZM375.061 250H333.061V247.83L339.641 242.65V200.23L332.361 197.78L333.761 194.98H374.361L378.141 193.72V209.82L376.041 210.52L367.711 198.13H348.391V220.32H359.381L364.491 211.36H366.661V232.64L363.861 234.04L359.451 223.47H348.391V246.85H367.431L376.741 233.06L378.841 233.76V251.26L375.061 250Z"/>
</mask>
<path d="M105.76 141.93C110.38 143.25 114.01 145.47 116.65 148.59C119.29 151.71 120.61 155.31 120.61 159.39C120.61 163.17 119.08 166.74 116.02 170.1C113.02 173.4 109.24 176.04 104.68 178.02C100.18 180 95.89 180.99 91.81 180.99C88.81 180.99 85.87 180.84 82.99 180.54C78.19 180.24 74.47 180.09 71.83 180.09H60.4V177.3L68.86 170.64V115.92L59.5 112.86L61.3 109.26H71.74C77.2 109.26 82.57 109.08 87.85 108.72C91.93 108.48 94.93 108.36 96.85 108.36C100.87 108.36 104.41 109.14 107.47 110.7C110.53 112.26 112.87 114.39 114.49 117.09C116.17 119.73 117.01 122.7 117.01 126C117.01 129 115.96 131.88 113.86 134.64C111.82 137.34 109.12 139.71 105.76 141.75V141.93ZM104.86 130.5C104.86 125.76 103.6 121.89 101.08 118.89C98.56 115.89 94.81 114.39 89.83 114.39C86.23 114.39 82.99 115.41 80.11 117.45V141.3H92.98C96.7 141.3 99.61 140.37 101.71 138.51C103.81 136.59 104.86 133.89 104.86 130.41V130.5ZM94.33 174.42C98.65 174.42 102.07 173.34 104.59 171.18C107.17 169.02 108.46 166.11 108.46 162.45C108.46 157.77 107.08 153.99 104.32 151.11C101.62 148.23 97.57 146.7 92.17 146.52C91.75 146.58 91.18 146.61 90.46 146.61H80.11V172.08C84.13 173.7 88.87 174.51 94.33 174.51V174.42ZM193.516 180.18H176.776L156.976 148.23L152.746 145.17L154.096 142.47H159.136C163.216 142.47 166.426 141.45 168.766 139.41C171.166 137.31 172.366 134.46 172.366 130.86C172.366 126.12 171.046 122.19 168.406 119.07C165.766 115.89 161.926 114.3 156.886 114.3C153.526 114.3 150.436 115.29 147.616 117.27V173.34L157.066 176.58L155.266 180.18H127.906V177.39L136.366 170.73V116.01L127.006 112.95L128.806 109.35H139.246C144.706 109.35 150.076 109.17 155.356 108.81C159.196 108.57 162.046 108.45 163.906 108.45C167.926 108.45 171.496 109.26 174.616 110.88C177.796 112.5 180.226 114.69 181.906 117.45C183.646 120.21 184.516 123.24 184.516 126.54C184.516 129.54 183.586 132.42 181.726 135.18C179.866 137.88 177.406 140.25 174.346 142.29C171.346 144.27 168.166 145.77 164.806 146.79L170.656 148.77L184.606 171.27L195.316 176.58L193.516 180.18ZM250.989 180H196.989V177.21L205.449 170.55V116.01L196.089 112.86L197.889 109.26H250.089L254.949 107.64V128.34L252.249 129.24L241.539 113.31H216.699V141.84H230.829L237.399 130.32H240.189V157.68L236.589 159.48L230.919 145.89H216.699V175.95H241.179L253.149 158.22L255.849 159.12V181.62L250.989 180ZM361.01 118.17L339.41 177.12L330.05 181.71L315.74 139.32L302.33 177.12L292.97 181.71L269.84 117.99L261.29 112.86L263.09 109.26H287.75V112.05L281.18 117L299.9 169.74L313.31 132.3L308.45 117.9L300.17 112.86L301.97 109.26H328.43V112.05L320.42 118.26L337.16 169.56L355.7 118.26L339.68 112.86L341.48 109.26H368.84V112.05L361.01 118.17ZM90 193.58C92.4733 193.58 95.32 193.93 98.54 194.63C101.807 195.33 104.187 196.077 105.68 196.87V210.45H103.02C98.7267 203.123 93.0333 199.46 85.94 199.46C82.86 199.46 80.0367 200.37 77.47 202.19C74.95 203.963 72.9667 206.46 71.52 209.68C70.0733 212.853 69.35 216.423 69.35 220.39C69.35 224.963 70.05 229.14 71.45 232.92C72.8967 236.7 75.0667 239.733 77.96 242.02C80.9 244.307 84.5167 245.45 88.81 245.45C92.7767 245.45 98.47 242.463 105.89 236.49L107.99 239.85L95.11 249.86C93.3833 250.467 91.7033 250.863 90.07 251.05C88.4833 251.283 86.7567 251.4 84.89 251.4C79.99 251.4 75.65 250.21 71.87 247.83C68.09 245.45 65.15 242.183 63.05 238.03C60.95 233.83 59.9 229.07 59.9 223.75C59.9 218.29 61.4867 213.25 64.66 208.63C67.8333 203.963 71.7767 200.3 76.49 197.64C81.2033 194.933 85.7067 193.58 90 193.58ZM144.622 193.58C149.569 193.58 153.932 194.77 157.712 197.15C161.539 199.53 164.502 202.82 166.602 207.02C168.702 211.22 169.752 215.98 169.752 221.3C169.752 226.76 168.165 231.8 164.992 236.42C161.819 241.04 157.875 244.703 153.162 247.41C148.449 250.07 143.945 251.4 139.652 251.4C134.705 251.4 130.319 250.233 126.492 247.9C122.712 245.52 119.772 242.23 117.672 238.03C115.572 233.83 114.522 229.07 114.522 223.75C114.522 218.29 116.109 213.25 119.282 208.63C122.455 203.963 126.399 200.3 131.112 197.64C135.825 194.933 140.329 193.58 144.622 193.58ZM140.562 199.46C137.482 199.46 134.659 200.37 132.092 202.19C129.572 203.963 127.589 206.46 126.142 209.68C124.695 212.853 123.972 216.423 123.972 220.39C123.972 224.963 124.695 229.163 126.142 232.99C127.589 236.77 129.782 239.803 132.722 242.09C135.709 244.377 139.372 245.52 143.712 245.52C146.792 245.52 149.592 244.633 152.112 242.86C154.679 241.04 156.685 238.543 158.132 235.37C159.579 232.15 160.302 228.557 160.302 224.59C160.302 219.97 159.579 215.77 158.132 211.99C156.685 208.163 154.492 205.13 151.552 202.89C148.612 200.603 144.949 199.46 140.562 199.46ZM221.182 209.82L219.082 210.52L210.752 198.13H191.432V220.32H202.422L207.532 211.36H209.702V230.54L206.902 231.94L202.632 223.47H191.362V244.19L202.212 247.2L200.812 250H176.032V247.83L182.612 242.65V200.23L175.332 197.78L176.732 194.98H217.332L221.182 193.72V209.82ZM272.591 209.82L270.491 210.52L262.161 198.13H242.841V220.32H253.831L258.941 211.36H261.111V230.54L258.311 231.94L254.041 223.47H242.771V244.19L253.621 247.2L252.221 250H227.441V247.83L234.021 242.65V200.23L226.741 197.78L228.141 194.98H268.741L272.591 193.72V209.82ZM320.85 250H278.85V247.83L285.43 242.65V200.23L278.15 197.78L279.55 194.98H320.15L323.93 193.72V209.82L321.83 210.52L313.5 198.13H294.18V220.32H305.17L310.28 211.36H312.45V232.64L309.65 234.04L305.24 223.47H294.18V246.85H313.22L322.53 233.06L324.63 233.76V251.26L320.85 250ZM375.061 250H333.061V247.83L339.641 242.65V200.23L332.361 197.78L333.761 194.98H374.361L378.141 193.72V209.82L376.041 210.52L367.711 198.13H348.391V220.32H359.381L364.491 211.36H366.661V232.64L363.861 234.04L359.451 223.47H348.391V246.85H367.431L376.741 233.06L378.841 233.76V251.26L375.061 250Z" fill="white" shape-rendering="crispEdges"/>
<path d="M105.76 141.93H104.76V142.684L105.485 142.892L105.76 141.93ZM116.65 148.59L117.413 147.944L117.413 147.944L116.65 148.59ZM116.02 170.1L115.281 169.427L115.28 169.427L116.02 170.1ZM104.68 178.02L104.282 177.103L104.277 177.105L104.68 178.02ZM82.99 180.54L83.0936 179.545L83.073 179.543L83.0524 179.542L82.99 180.54ZM60.4 180.09H59.4V181.09H60.4V180.09ZM60.4 177.3L59.7814 176.514L59.4 176.815V177.3H60.4ZM68.86 170.64L69.4786 171.426L69.86 171.125V170.64H68.86ZM68.86 115.92H69.86V115.195L69.1707 114.97L68.86 115.92ZM59.5 112.86L58.6056 112.413L58.0869 113.45L59.1893 113.81L59.5 112.86ZM61.3 109.26V108.26H60.682L60.4056 108.813L61.3 109.26ZM87.85 108.72L87.7913 107.722L87.782 107.722L87.85 108.72ZM114.49 117.09L113.633 117.604L113.639 117.616L113.646 117.627L114.49 117.09ZM113.86 134.64L113.064 134.034L113.062 134.037L113.86 134.64ZM105.76 141.75L105.241 140.895L104.76 141.187V141.75H105.76ZM80.11 117.45L79.532 116.634L79.11 116.933V117.45H80.11ZM80.11 141.3H79.11V142.3H80.11V141.3ZM101.71 138.51L102.373 139.259L102.379 139.253L102.385 139.248L101.71 138.51ZM94.33 174.42V173.42H93.33V174.42H94.33ZM104.59 171.18L103.948 170.413L103.939 170.421L104.59 171.18ZM104.32 151.11L103.59 151.794L103.598 151.802L104.32 151.11ZM92.17 146.52L92.2033 145.521L92.1155 145.518L92.0286 145.53L92.17 146.52ZM80.11 146.61V145.61H79.11V146.61H80.11ZM80.11 172.08H79.11V172.755L79.7362 173.008L80.11 172.08ZM94.33 174.51V175.51H95.33V174.51H94.33ZM105.485 142.892C109.949 144.167 113.396 146.292 115.887 149.236L117.413 147.944C114.624 144.648 110.811 142.333 106.035 140.968L105.485 142.892ZM115.887 149.236C118.374 152.176 119.61 155.547 119.61 159.39H121.61C121.61 155.073 120.206 151.244 117.413 147.944L115.887 149.236ZM119.61 159.39C119.61 162.872 118.209 166.212 115.281 169.427L116.759 170.773C119.951 167.268 121.61 163.468 121.61 159.39H119.61ZM115.28 169.427C112.386 172.611 108.727 175.173 104.282 177.103L105.078 178.937C109.753 176.907 113.654 174.189 116.76 170.773L115.28 169.427ZM104.277 177.105C99.8787 179.04 95.7259 179.99 91.81 179.99V181.99C96.0541 181.99 100.481 180.96 105.083 178.935L104.277 177.105ZM91.81 179.99C88.8434 179.99 85.938 179.842 83.0936 179.545L82.8864 181.535C85.802 181.838 88.7766 181.99 91.81 181.99V179.99ZM83.0524 179.542C78.2455 179.242 74.5012 179.09 71.83 179.09V181.09C74.4388 181.09 78.1345 181.238 82.9276 181.538L83.0524 179.542ZM71.83 179.09H60.4V181.09H71.83V179.09ZM61.4 180.09V177.3H59.4V180.09H61.4ZM61.0186 178.086L69.4786 171.426L68.2414 169.854L59.7814 176.514L61.0186 178.086ZM69.86 170.64V115.92H67.86V170.64H69.86ZM69.1707 114.97L59.8107 111.91L59.1893 113.81L68.5493 116.87L69.1707 114.97ZM60.3944 113.307L62.1944 109.707L60.4056 108.813L58.6056 112.413L60.3944 113.307ZM61.3 110.26H71.74V108.26H61.3V110.26ZM71.74 110.26C77.222 110.26 82.6147 110.079 87.918 109.718L87.782 107.722C82.5253 108.081 77.178 108.26 71.74 108.26V110.26ZM87.9087 109.718C91.9858 109.478 94.9612 109.36 96.85 109.36V107.36C94.8988 107.36 91.8742 107.482 87.7913 107.722L87.9087 109.718ZM96.85 109.36C100.739 109.36 104.119 110.114 107.016 111.591L107.924 109.809C104.701 108.166 101.001 107.36 96.85 107.36V109.36ZM107.016 111.591C109.924 113.074 112.118 115.08 113.633 117.604L115.347 116.575C113.622 113.7 111.136 111.446 107.924 109.809L107.016 111.591ZM113.646 117.627C115.219 120.097 116.01 122.879 116.01 126H118.01C118.01 122.521 117.121 119.363 115.334 116.553L113.646 117.627ZM116.01 126C116.01 128.748 115.053 131.42 113.064 134.034L114.656 135.246C116.867 132.34 118.01 129.252 118.01 126H116.01ZM113.062 134.037C111.11 136.621 108.51 138.91 105.241 140.895L106.279 142.605C109.73 140.51 112.53 138.059 114.658 135.243L113.062 134.037ZM104.76 141.75V141.93H106.76V141.75H104.76ZM105.86 130.5C105.86 125.576 104.547 121.463 101.846 118.247L100.314 119.533C102.653 122.317 103.86 125.944 103.86 130.5H105.86ZM101.846 118.247C99.0863 114.962 95.0189 113.39 89.83 113.39V115.39C94.6012 115.39 98.0337 116.818 100.314 119.533L101.846 118.247ZM89.83 113.39C86.0274 113.39 82.5845 114.472 79.532 116.634L80.688 118.266C83.3955 116.348 86.4326 115.39 89.83 115.39V113.39ZM79.11 117.45V141.3H81.11V117.45H79.11ZM80.11 142.3H92.98V140.3H80.11V142.3ZM92.98 142.3C96.8633 142.3 100.037 141.327 102.373 139.259L101.047 137.761C99.1825 139.413 96.5367 140.3 92.98 140.3V142.3ZM102.385 139.248C104.737 137.097 105.86 134.103 105.86 130.41H103.86C103.86 133.677 102.883 136.083 101.035 137.772L102.385 139.248ZM103.86 130.41V130.5H105.86V130.41H103.86ZM94.33 175.42C98.8154 175.42 102.491 174.296 105.241 171.939L103.939 170.421C101.649 172.384 98.4846 173.42 94.33 173.42V175.42ZM105.232 171.947C108.061 169.579 109.46 166.377 109.46 162.45H107.46C107.46 165.843 106.279 168.461 103.948 170.413L105.232 171.947ZM109.46 162.45C109.46 157.56 108.011 153.516 105.042 150.418L103.598 151.802C106.149 154.464 107.46 157.98 107.46 162.45H109.46ZM105.05 150.426C102.11 147.29 97.7682 145.706 92.2033 145.521L92.1367 147.519C97.3718 147.694 101.13 149.17 103.59 151.794L105.05 150.426ZM92.0286 145.53C91.6766 145.58 91.1604 145.61 90.46 145.61V147.61C91.1996 147.61 91.8234 147.58 92.3114 147.51L92.0286 145.53ZM90.46 145.61H80.11V147.61H90.46V145.61ZM79.11 146.61V172.08H81.11V146.61H79.11ZM79.7362 173.008C83.9015 174.686 88.7739 175.51 94.33 175.51V173.51C88.9661 173.51 84.3585 172.714 80.4838 171.152L79.7362 173.008ZM95.33 174.51V174.42H93.33V174.51H95.33ZM193.516 180.18V181.18H194.134L194.41 180.627L193.516 180.18ZM176.776 180.18L175.926 180.707L176.219 181.18H176.776V180.18ZM156.976 148.23L157.826 147.703L157.722 147.535L157.562 147.42L156.976 148.23ZM152.746 145.17L151.851 144.723L151.471 145.482L152.16 145.98L152.746 145.17ZM154.096 142.47V141.47H153.478L153.201 142.023L154.096 142.47ZM168.766 139.41L169.423 140.164L169.424 140.163L168.766 139.41ZM168.406 119.07L167.636 119.709L167.642 119.716L168.406 119.07ZM147.616 117.27L147.041 116.452L146.616 116.75V117.27H147.616ZM147.616 173.34H146.616V174.054L147.291 174.286L147.616 173.34ZM157.066 176.58L157.96 177.027L158.471 176.005L157.39 175.634L157.066 176.58ZM155.266 180.18V181.18H155.884L156.16 180.627L155.266 180.18ZM127.906 180.18H126.906V181.18H127.906V180.18ZM127.906 177.39L127.287 176.604L126.906 176.905V177.39H127.906ZM136.366 170.73L136.984 171.516L137.366 171.215V170.73H136.366ZM136.366 116.01H137.366V115.285L136.676 115.06L136.366 116.01ZM127.006 112.95L126.111 112.503L125.593 113.54L126.695 113.9L127.006 112.95ZM128.806 109.35V108.35H128.188L127.911 108.903L128.806 109.35ZM155.356 108.81L155.293 107.812L155.288 107.812L155.356 108.81ZM174.616 110.88L174.155 111.768L174.162 111.771L174.616 110.88ZM181.906 117.45L181.051 117.97L181.056 117.977L181.06 117.983L181.906 117.45ZM181.726 135.18L182.549 135.747L182.555 135.739L181.726 135.18ZM174.346 142.29L174.896 143.125L174.9 143.122L174.346 142.29ZM164.806 146.79L164.515 145.833L161.534 146.738L164.485 147.737L164.806 146.79ZM170.656 148.77L171.506 148.243L171.316 147.938L170.976 147.823L170.656 148.77ZM184.606 171.27L183.756 171.797L183.906 172.039L184.161 172.166L184.606 171.27ZM195.316 176.58L196.21 177.027L196.659 176.13L195.76 175.684L195.316 176.58ZM193.516 179.18H176.776V181.18H193.516V179.18ZM177.626 179.653L157.826 147.703L156.126 148.757L175.926 180.707L177.626 179.653ZM157.562 147.42L153.332 144.36L152.16 145.98L156.39 149.04L157.562 147.42ZM153.64 145.617L154.99 142.917L153.201 142.023L151.851 144.723L153.64 145.617ZM154.096 143.47H159.136V141.47H154.096V143.47ZM159.136 143.47C163.38 143.47 166.85 142.407 169.423 140.164L168.108 138.656C166.001 140.493 163.051 141.47 159.136 141.47V143.47ZM169.424 140.163C172.07 137.847 173.366 134.707 173.366 130.86H171.366C171.366 134.213 170.261 136.773 168.107 138.657L169.424 140.163ZM173.366 130.86C173.366 125.923 171.986 121.753 169.169 118.424L167.642 119.716C170.106 122.627 171.366 126.317 171.366 130.86H173.366ZM169.175 118.431C166.304 114.972 162.151 113.3 156.886 113.3V115.3C161.7 115.3 165.228 116.808 167.636 119.709L169.175 118.431ZM156.886 113.3C153.314 113.3 150.025 114.357 147.041 116.452L148.19 118.088C150.847 116.223 153.737 115.3 156.886 115.3V113.3ZM146.616 117.27V173.34H148.616V117.27H146.616ZM147.291 174.286L156.741 177.526L157.39 175.634L147.94 172.394L147.291 174.286ZM156.171 176.133L154.371 179.733L156.16 180.627L157.96 177.027L156.171 176.133ZM155.266 179.18H127.906V181.18H155.266V179.18ZM128.906 180.18V177.39H126.906V180.18H128.906ZM128.524 178.176L136.984 171.516L135.747 169.944L127.287 176.604L128.524 178.176ZM137.366 170.73V116.01H135.366V170.73H137.366ZM136.676 115.06L127.316 111.999L126.695 113.9L136.055 116.96L136.676 115.06ZM127.9 113.397L129.7 109.797L127.911 108.903L126.111 112.503L127.9 113.397ZM128.806 110.35H139.246V108.35H128.806V110.35ZM139.246 110.35C144.728 110.35 150.12 110.169 155.424 109.808L155.288 107.812C150.031 108.171 144.684 108.35 139.246 108.35V110.35ZM155.418 109.808C159.254 109.568 162.078 109.45 163.906 109.45V107.45C162.013 107.45 159.137 107.572 155.293 107.812L155.418 109.808ZM163.906 109.45C167.788 109.45 171.196 110.231 174.155 111.767L175.076 109.993C171.795 108.289 168.063 107.45 163.906 107.45V109.45ZM174.162 111.771C177.194 113.316 179.478 115.385 181.051 117.97L182.76 116.93C180.973 113.995 178.397 111.684 175.07 109.989L174.162 111.771ZM181.06 117.983C182.698 120.582 183.516 123.426 183.516 126.54H185.516C185.516 123.054 184.593 119.838 182.752 116.917L181.06 117.983ZM183.516 126.54C183.516 129.319 182.658 132.007 180.896 134.621L182.555 135.739C184.514 132.833 185.516 129.761 185.516 126.54H183.516ZM180.902 134.613C179.122 137.196 176.758 139.48 173.791 141.458L174.9 143.122C178.053 141.02 180.609 138.564 182.549 135.747L180.902 134.613ZM173.795 141.455C170.873 143.384 167.781 144.842 164.515 145.833L165.096 147.747C168.551 146.698 171.818 145.156 174.896 143.125L173.795 141.455ZM164.485 147.737L170.335 149.717L170.976 147.823L165.126 145.843L164.485 147.737ZM169.806 149.297L183.756 171.797L185.456 170.743L171.506 148.243L169.806 149.297ZM184.161 172.166L194.871 177.476L195.76 175.684L185.05 170.374L184.161 172.166ZM194.421 176.133L192.621 179.733L194.41 180.627L196.21 177.027L194.421 176.133ZM250.989 180L251.305 179.051L251.151 179H250.989V180ZM196.989 180H195.989V181H196.989V180ZM196.989 177.21L196.371 176.424L195.989 176.725V177.21H196.989ZM205.449 170.55L206.068 171.336L206.449 171.035V170.55H205.449ZM205.449 116.01H206.449V115.291L205.768 115.062L205.449 116.01ZM196.089 112.86L195.195 112.413L194.68 113.441L195.77 113.808L196.089 112.86ZM197.889 109.26V108.26H197.271L196.995 108.813L197.889 109.26ZM250.089 109.26V110.26H250.251L250.405 110.209L250.089 109.26ZM254.949 107.64H255.949V106.253L254.633 106.691L254.949 107.64ZM254.949 128.34L255.265 129.289L255.949 129.061V128.34H254.949ZM252.249 129.24L251.419 129.798L251.844 130.429L252.565 130.189L252.249 129.24ZM241.539 113.31L242.369 112.752L242.072 112.31H241.539V113.31ZM216.699 113.31V112.31H215.699V113.31H216.699ZM216.699 141.84H215.699V142.84H216.699V141.84ZM230.829 141.84V142.84H231.41L231.698 142.335L230.829 141.84ZM237.399 130.32V129.32H236.818L236.53 129.825L237.399 130.32ZM240.189 130.32H241.189V129.32H240.189V130.32ZM240.189 157.68L240.636 158.574L241.189 158.298V157.68H240.189ZM236.589 159.48L235.666 159.865L236.078 160.853L237.036 160.374L236.589 159.48ZM230.919 145.89L231.842 145.505L231.585 144.89H230.919V145.89ZM216.699 145.89V144.89H215.699V145.89H216.699ZM216.699 175.95H215.699V176.95H216.699V175.95ZM241.179 175.95V176.95H241.711L242.008 176.51L241.179 175.95ZM253.149 158.22L253.465 157.271L252.745 157.031L252.32 157.66L253.149 158.22ZM255.849 159.12H256.849V158.399L256.165 158.171L255.849 159.12ZM255.849 181.62L255.533 182.569L256.849 183.007V181.62H255.849ZM250.989 179H196.989V181H250.989V179ZM197.989 180V177.21H195.989V180H197.989ZM197.608 177.996L206.068 171.336L204.831 169.764L196.371 176.424L197.608 177.996ZM206.449 170.55V116.01H204.449V170.55H206.449ZM205.768 115.062L196.408 111.912L195.77 113.808L205.13 116.958L205.768 115.062ZM196.983 113.307L198.783 109.707L196.995 108.813L195.195 112.413L196.983 113.307ZM197.889 110.26H250.089V108.26H197.889V110.26ZM250.405 110.209L255.265 108.589L254.633 106.691L249.773 108.311L250.405 110.209ZM253.949 107.64V128.34H255.949V107.64H253.949ZM254.633 127.391L251.933 128.291L252.565 130.189L255.265 129.289L254.633 127.391ZM253.079 128.682L242.369 112.752L240.709 113.868L251.419 129.798L253.079 128.682ZM241.539 112.31H216.699V114.31H241.539V112.31ZM215.699 113.31V141.84H217.699V113.31H215.699ZM216.699 142.84H230.829V140.84H216.699V142.84ZM231.698 142.335L238.268 130.815L236.53 129.825L229.96 141.345L231.698 142.335ZM237.399 131.32H240.189V129.32H237.399V131.32ZM239.189 130.32V157.68H241.189V130.32H239.189ZM239.742 156.786L236.142 158.586L237.036 160.374L240.636 158.574L239.742 156.786ZM237.512 159.095L231.842 145.505L229.996 146.275L235.666 159.865L237.512 159.095ZM230.919 144.89H216.699V146.89H230.919V144.89ZM215.699 145.89V175.95H217.699V145.89H215.699ZM216.699 176.95H241.179V174.95H216.699V176.95ZM242.008 176.51L253.978 158.78L252.32 157.66L240.35 175.39L242.008 176.51ZM252.833 159.169L255.533 160.069L256.165 158.171L253.465 157.271L252.833 159.169ZM254.849 159.12V181.62H256.849V159.12H254.849ZM256.165 180.671L251.305 179.051L250.673 180.949L255.533 182.569L256.165 180.671ZM361.01 118.17L360.394 117.382L360.169 117.558L360.071 117.826L361.01 118.17ZM339.41 177.12L339.85 178.018L340.211 177.841L340.349 177.464L339.41 177.12ZM330.05 181.71L329.102 182.03L329.467 183.11L330.49 182.608L330.05 181.71ZM315.74 139.32L316.687 139L315.763 136.263L314.797 138.986L315.74 139.32ZM302.33 177.12L302.77 178.018L303.136 177.838L303.272 177.454L302.33 177.12ZM292.97 181.71L292.03 182.051L292.41 183.098L293.41 182.608L292.97 181.71ZM269.84 117.99L270.78 117.649L270.659 117.315L270.354 117.133L269.84 117.99ZM261.29 112.86L260.395 112.413L259.981 113.241L260.775 113.717L261.29 112.86ZM263.09 109.26V108.26H262.472L262.195 108.813L263.09 109.26ZM287.75 109.26H288.75V108.26H287.75V109.26ZM287.75 112.05L288.352 112.849L288.75 112.549V112.05H287.75ZM281.18 117L280.578 116.201L279.992 116.643L280.237 117.334L281.18 117ZM299.9 169.74L298.957 170.075L299.896 172.718L300.841 170.077L299.9 169.74ZM313.31 132.3L314.251 132.637L314.369 132.31L314.257 131.98L313.31 132.3ZM308.45 117.9L309.397 117.58L309.281 117.235L308.97 117.046L308.45 117.9ZM300.17 112.86L299.275 112.413L298.864 113.236L299.65 113.714L300.17 112.86ZM301.97 109.26V108.26H301.352L301.075 108.813L301.97 109.26ZM328.43 109.26H329.43V108.26H328.43V109.26ZM328.43 112.05L329.043 112.84L329.43 112.54V112.05H328.43ZM320.42 118.26L319.807 117.47L319.251 117.901L319.469 118.57L320.42 118.26ZM337.16 169.56L336.209 169.87L337.112 172.636L338.1 169.9L337.16 169.56ZM355.7 118.26L356.64 118.6L356.988 117.639L356.019 117.312L355.7 118.26ZM339.68 112.86L338.785 112.413L338.272 113.441L339.36 113.808L339.68 112.86ZM341.48 109.26V108.26H340.862L340.585 108.813L341.48 109.26ZM368.84 109.26H369.84V108.26H368.84V109.26ZM368.84 112.05L369.456 112.838L369.84 112.538V112.05H368.84ZM360.071 117.826L338.471 176.776L340.349 177.464L361.949 118.514L360.071 117.826ZM338.97 176.222L329.61 180.812L330.49 182.608L339.85 178.018L338.97 176.222ZM330.997 181.39L316.687 139L314.792 139.64L329.102 182.03L330.997 181.39ZM314.797 138.986L301.387 176.786L303.272 177.454L316.682 139.654L314.797 138.986ZM301.89 176.222L292.53 180.812L293.41 182.608L302.77 178.018L301.89 176.222ZM293.91 181.369L270.78 117.649L268.9 118.331L292.03 182.051L293.91 181.369ZM270.354 117.133L261.804 112.003L260.775 113.717L269.325 118.847L270.354 117.133ZM262.184 113.307L263.984 109.707L262.195 108.813L260.395 112.413L262.184 113.307ZM263.09 110.26H287.75V108.26H263.09V110.26ZM286.75 109.26V112.05H288.75V109.26H286.75ZM287.148 111.251L280.578 116.201L281.782 117.799L288.352 112.849L287.148 111.251ZM280.237 117.334L298.957 170.075L300.842 169.405L282.122 116.665L280.237 117.334ZM300.841 170.077L314.251 132.637L312.368 131.963L298.958 169.403L300.841 170.077ZM314.257 131.98L309.397 117.58L307.502 118.22L312.362 132.62L314.257 131.98ZM308.97 117.046L300.69 112.006L299.65 113.714L307.93 118.754L308.97 117.046ZM301.064 113.307L302.864 109.707L301.075 108.813L299.275 112.413L301.064 113.307ZM301.97 110.26H328.43V108.26H301.97V110.26ZM327.43 109.26V112.05H329.43V109.26H327.43ZM327.817 111.26L319.807 117.47L321.033 119.05L329.043 112.84L327.817 111.26ZM319.469 118.57L336.209 169.87L338.111 169.25L321.371 117.95L319.469 118.57ZM338.1 169.9L356.64 118.6L354.759 117.92L336.219 169.22L338.1 169.9ZM356.019 117.312L339.999 111.912L339.36 113.808L355.38 119.208L356.019 117.312ZM340.574 113.307L342.374 109.707L340.585 108.813L338.785 112.413L340.574 113.307ZM341.48 110.26H368.84V108.26H341.48V110.26ZM367.84 109.26V112.05H369.84V109.26H367.84ZM368.224 111.262L360.394 117.382L361.626 118.958L369.456 112.838L368.224 111.262ZM98.54 194.63L98.3276 195.607L98.3305 195.608L98.54 194.63ZM105.68 196.87H106.68V196.269L106.149 195.987L105.68 196.87ZM105.68 210.45V211.45H106.68V210.45H105.68ZM103.02 210.45L102.157 210.956L102.447 211.45H103.02V210.45ZM77.47 202.19L78.0455 203.008L78.0484 203.006L77.47 202.19ZM71.52 209.68L72.4299 210.095L72.4322 210.09L71.52 209.68ZM71.45 232.92L70.5122 233.267L70.5161 233.277L71.45 232.92ZM77.96 242.02L77.3399 242.805L77.3461 242.809L77.96 242.02ZM105.89 236.49L106.738 235.96L106.141 235.004L105.263 235.711L105.89 236.49ZM107.99 239.85L108.604 240.64L109.316 240.086L108.838 239.32L107.99 239.85ZM95.11 249.86L95.4415 250.803L95.5951 250.749L95.7236 250.65L95.11 249.86ZM90.07 251.05L89.9565 250.056L89.9404 250.058L89.9245 250.061L90.07 251.05ZM71.87 247.83L71.3372 248.676L71.3372 248.676L71.87 247.83ZM63.05 238.03L62.1556 238.477L62.1576 238.481L63.05 238.03ZM64.66 208.63L65.4843 209.196L65.4869 209.192L64.66 208.63ZM76.49 197.64L76.9815 198.511L76.988 198.507L76.49 197.64ZM90 194.58C92.3828 194.58 95.1559 194.918 98.3276 195.607L98.7524 193.653C95.4841 192.942 92.5638 192.58 90 192.58V194.58ZM98.3305 195.608C101.577 196.303 103.845 197.027 105.211 197.753L106.149 195.987C104.529 195.126 102.037 194.357 98.7495 193.652L98.3305 195.608ZM104.68 196.87V210.45H106.68V196.87H104.68ZM105.68 209.45H103.02V211.45H105.68V209.45ZM103.883 209.944C99.4517 202.383 93.4637 198.46 85.94 198.46V200.46C92.603 200.46 98.0017 203.864 102.157 210.956L103.883 209.944ZM85.94 198.46C82.648 198.46 79.6234 199.437 76.8916 201.374L78.0484 203.006C80.4499 201.303 83.072 200.46 85.94 200.46V198.46ZM76.8945 201.372C74.2074 203.263 72.1172 205.911 70.6078 209.27L72.4322 210.09C73.8162 207.009 75.6926 204.664 78.0455 203.008L76.8945 201.372ZM70.6101 209.265C69.0964 212.586 68.35 216.3 68.35 220.39H70.35C70.35 216.547 71.0503 213.121 72.4299 210.095L70.6101 209.265ZM68.35 220.39C68.35 225.066 69.0659 229.362 70.5123 233.267L72.3877 232.573C71.0341 228.918 70.35 224.861 70.35 220.39H68.35ZM70.5161 233.277C72.0206 237.209 74.2919 240.396 77.3399 242.805L78.5801 241.235C75.8414 239.071 73.7728 236.191 72.3839 232.563L70.5161 233.277ZM77.3461 242.809C80.4877 245.253 84.3298 246.45 88.81 246.45V244.45C84.7035 244.45 81.3123 243.36 78.5739 241.231L77.3461 242.809ZM88.81 246.45C91.0257 246.45 93.6088 245.622 96.5196 244.096C99.444 242.561 102.778 240.279 106.517 237.269L105.263 235.711C101.582 238.674 98.3593 240.872 95.5905 242.324C92.8079 243.784 90.561 244.45 88.81 244.45V246.45ZM105.042 237.02L107.142 240.38L108.838 239.32L106.738 235.96L105.042 237.02ZM107.376 239.06L94.4964 249.07L95.7236 250.65L108.604 240.64L107.376 239.06ZM94.7785 248.917C93.1146 249.501 91.5077 249.879 89.9565 250.056L90.1835 252.044C91.899 251.847 93.6521 251.432 95.4415 250.803L94.7785 248.917ZM89.9245 250.061C88.3931 250.286 86.7157 250.4 84.89 250.4V252.4C86.7977 252.4 88.5736 252.281 90.2155 252.039L89.9245 250.061ZM84.89 250.4C80.1596 250.4 76.0079 249.254 72.4028 246.984L71.3372 248.676C75.2921 251.166 79.8204 252.4 84.89 252.4V250.4ZM72.4028 246.984C68.7829 244.705 65.9642 241.577 63.9424 237.579L62.1576 238.481C64.3358 242.789 67.3971 246.195 71.3372 248.676L72.4028 246.984ZM63.9444 237.583C61.9226 233.539 60.9 228.936 60.9 223.75H58.9C58.9 229.204 59.9774 234.121 62.1556 238.477L63.9444 237.583ZM60.9 223.75C60.9 218.498 62.4222 213.654 65.4843 209.196L63.8357 208.064C60.5512 212.846 58.9 218.082 58.9 223.75H60.9ZM65.4869 209.192C68.5775 204.647 72.408 201.092 76.9815 198.511L75.9985 196.769C71.1453 199.508 67.0892 203.279 63.8331 208.068L65.4869 209.192ZM76.988 198.507C81.5894 195.865 85.9221 194.58 90 194.58V192.58C85.4913 192.58 80.8172 194.002 75.992 196.773L76.988 198.507ZM157.712 197.15L157.179 197.996L157.184 197.999L157.712 197.15ZM166.602 207.02L165.707 207.467L165.707 207.467L166.602 207.02ZM164.992 236.42L164.168 235.854L164.168 235.854L164.992 236.42ZM153.162 247.41L153.653 248.281L153.66 248.277L153.162 247.41ZM126.492 247.9L125.959 248.746L125.965 248.75L125.971 248.754L126.492 247.9ZM117.672 238.03L116.777 238.477L116.777 238.477L117.672 238.03ZM119.282 208.63L120.106 209.196L120.109 209.192L119.282 208.63ZM131.112 197.64L131.603 198.511L131.61 198.507L131.112 197.64ZM132.092 202.19L132.667 203.008L132.67 203.006L132.092 202.19ZM126.142 209.68L127.052 210.095L127.054 210.09L126.142 209.68ZM126.142 232.99L125.206 233.344L125.208 233.347L126.142 232.99ZM132.722 242.09L132.108 242.879L132.114 242.884L132.722 242.09ZM152.112 242.86L152.687 243.678L152.69 243.676L152.112 242.86ZM158.132 235.37L159.042 235.785L159.044 235.78L158.132 235.37ZM158.132 211.99L157.196 212.344L157.198 212.347L158.132 211.99ZM151.552 202.89L150.938 203.679L150.946 203.685L151.552 202.89ZM144.622 194.58C149.401 194.58 153.575 195.727 157.179 197.996L158.245 196.304C154.288 193.813 149.736 192.58 144.622 192.58V194.58ZM157.184 197.999C160.847 200.277 163.686 203.425 165.707 207.467L167.496 206.573C165.317 202.215 162.23 198.783 158.24 196.301L157.184 197.999ZM165.707 207.467C167.729 211.511 168.752 216.114 168.752 221.3H170.752C170.752 215.846 169.674 210.929 167.496 206.573L165.707 207.467ZM168.752 221.3C168.752 226.552 167.23 231.396 164.168 235.854L165.816 236.986C169.101 232.204 170.752 226.968 170.752 221.3H168.752ZM164.168 235.854C161.076 240.354 157.243 243.913 152.664 246.543L153.66 248.277C158.507 245.494 162.561 241.726 165.816 236.986L164.168 235.854ZM152.67 246.539C148.069 249.136 143.734 250.4 139.652 250.4V252.4C144.157 252.4 148.828 251.004 153.653 248.281L152.67 246.539ZM139.652 250.4C134.869 250.4 130.666 249.274 127.012 247.046L125.971 248.754C129.971 251.192 134.541 252.4 139.652 252.4V250.4ZM127.025 247.054C123.408 244.776 120.589 241.628 118.566 237.583L116.777 238.477C118.955 242.832 122.016 246.264 125.959 248.746L127.025 247.054ZM118.566 237.583C116.544 233.539 115.522 228.936 115.522 223.75H113.522C113.522 229.204 114.599 234.121 116.777 238.477L118.566 237.583ZM115.522 223.75C115.522 218.498 117.044 213.654 120.106 209.196L118.458 208.064C115.173 212.846 113.522 218.082 113.522 223.75H115.522ZM120.109 209.192C123.199 204.647 127.03 201.092 131.603 198.511L130.62 196.769C125.767 199.508 121.711 203.279 118.455 208.068L120.109 209.192ZM131.61 198.507C136.211 195.865 140.544 194.58 144.622 194.58V192.58C140.113 192.58 135.439 194.002 130.614 196.773L131.61 198.507ZM140.562 198.46C137.27 198.46 134.245 199.437 131.513 201.374L132.67 203.006C135.072 201.303 137.694 200.46 140.562 200.46V198.46ZM131.516 201.372C128.829 203.263 126.739 205.911 125.23 209.27L127.054 210.09C128.438 207.009 130.315 204.664 132.667 203.008L131.516 201.372ZM125.232 209.265C123.718 212.586 122.972 216.3 122.972 220.39H124.972C124.972 216.547 125.672 213.121 127.052 210.095L125.232 209.265ZM122.972 220.39C122.972 225.07 123.712 229.391 125.206 233.344L127.077 232.636C125.678 228.935 124.972 224.857 124.972 220.39H122.972ZM125.208 233.347C126.714 237.283 129.011 240.471 132.108 242.879L133.336 241.301C130.552 239.136 128.463 236.257 127.076 232.633L125.208 233.347ZM132.114 242.884C135.301 245.324 139.187 246.52 143.712 246.52V244.52C139.556 244.52 136.116 243.429 133.33 241.296L132.114 242.884ZM143.712 246.52C146.998 246.52 149.999 245.57 152.687 243.678L151.536 242.042C149.185 243.697 146.586 244.52 143.712 244.52V246.52ZM152.69 243.676C155.416 241.743 157.53 239.101 159.042 235.785L157.222 234.955C155.84 237.986 153.941 240.337 151.533 242.044L152.69 243.676ZM159.044 235.78C160.555 232.416 161.302 228.68 161.302 224.59H159.302C159.302 228.433 158.602 231.884 157.22 234.96L159.044 235.78ZM161.302 224.59C161.302 219.865 160.562 215.542 159.066 211.633L157.198 212.347C158.595 215.998 159.302 220.075 159.302 224.59H161.302ZM159.067 211.636C157.562 207.654 155.263 204.46 152.158 202.095L150.946 203.685C153.721 205.8 155.809 208.673 157.196 212.344L159.067 211.636ZM152.166 202.101C149.02 199.654 145.13 198.46 140.562 198.46V200.46C144.767 200.46 148.203 201.552 150.938 203.679L152.166 202.101ZM221.182 209.82L221.498 210.769L222.182 210.541V209.82H221.182ZM219.082 210.52L218.252 211.078L218.676 211.709L219.398 211.469L219.082 210.52ZM210.752 198.13L211.582 197.572L211.284 197.13H210.752V198.13ZM191.432 198.13V197.13H190.432V198.13H191.432ZM191.432 220.32H190.432V221.32H191.432V220.32ZM202.422 220.32V221.32H203.003L203.29 220.815L202.422 220.32ZM207.532 211.36V210.36H206.951L206.663 210.865L207.532 211.36ZM209.702 211.36H210.702V210.36H209.702V211.36ZM209.702 230.54L210.149 231.434L210.702 231.158V230.54H209.702ZM206.902 231.94L206.009 232.39L206.457 233.28L207.349 232.834L206.902 231.94ZM202.632 223.47L203.525 223.02L203.247 222.47H202.632V223.47ZM191.362 223.47V222.47H190.362V223.47H191.362ZM191.362 244.19H190.362V244.95L191.094 245.154L191.362 244.19ZM202.212 247.2L203.106 247.647L203.649 246.561L202.479 246.236L202.212 247.2ZM200.812 250V251H201.43L201.706 250.447L200.812 250ZM176.032 250H175.032V251H176.032V250ZM176.032 247.83L175.413 247.044L175.032 247.345V247.83H176.032ZM182.612 242.65L183.23 243.436L183.612 243.135V242.65H182.612ZM182.612 200.23H183.612V199.511L182.931 199.282L182.612 200.23ZM175.332 197.78L174.437 197.333L173.923 198.361L175.013 198.728L175.332 197.78ZM176.732 194.98V193.98H176.114L175.837 194.533L176.732 194.98ZM217.332 194.98V195.98H217.491L217.643 195.93L217.332 194.98ZM221.182 193.72H222.182V192.341L220.871 192.77L221.182 193.72ZM220.865 208.871L218.765 209.571L219.398 211.469L221.498 210.769L220.865 208.871ZM219.912 209.962L211.582 197.572L209.922 198.688L218.252 211.078L219.912 209.962ZM210.752 197.13H191.432V199.13H210.752V197.13ZM190.432 198.13V220.32H192.432V198.13H190.432ZM191.432 221.32H202.422V219.32H191.432V221.32ZM203.29 220.815L208.4 211.855L206.663 210.865L201.553 219.825L203.29 220.815ZM207.532 212.36H209.702V210.36H207.532V212.36ZM208.702 211.36V230.54H210.702V211.36H208.702ZM209.254 229.646L206.454 231.046L207.349 232.834L210.149 231.434L209.254 229.646ZM207.795 231.49L203.525 223.02L201.739 223.92L206.009 232.39L207.795 231.49ZM202.632 222.47H191.362V224.47H202.632V222.47ZM190.362 223.47V244.19H192.362V223.47H190.362ZM191.094 245.154L201.944 248.164L202.479 246.236L191.629 243.226L191.094 245.154ZM201.317 246.753L199.917 249.553L201.706 250.447L203.106 247.647L201.317 246.753ZM200.812 249H176.032V251H200.812V249ZM177.032 250V247.83H175.032V250H177.032ZM176.65 248.616L183.23 243.436L181.993 241.864L175.413 247.044L176.65 248.616ZM183.612 242.65V200.23H181.612V242.65H183.612ZM182.931 199.282L175.651 196.832L175.013 198.728L182.293 201.178L182.931 199.282ZM176.226 198.227L177.626 195.427L175.837 194.533L174.437 197.333L176.226 198.227ZM176.732 195.98H217.332V193.98H176.732V195.98ZM217.643 195.93L221.493 194.67L220.871 192.77L217.021 194.03L217.643 195.93ZM220.182 193.72V209.82H222.182V193.72H220.182ZM272.591 209.82L272.907 210.769L273.591 210.541V209.82H272.591ZM270.491 210.52L269.661 211.078L270.085 211.709L270.807 211.469L270.491 210.52ZM262.161 198.13L262.991 197.572L262.693 197.13H262.161V198.13ZM242.841 198.13V197.13H241.841V198.13H242.841ZM242.841 220.32H241.841V221.32H242.841V220.32ZM253.831 220.32V221.32H254.412L254.699 220.815L253.831 220.32ZM258.941 211.36V210.36H258.36L258.072 210.865L258.941 211.36ZM261.111 211.36H262.111V210.36H261.111V211.36ZM261.111 230.54L261.558 231.434L262.111 231.158V230.54H261.111ZM258.311 231.94L257.418 232.39L257.866 233.28L258.758 232.834L258.311 231.94ZM254.041 223.47L254.934 223.02L254.656 222.47H254.041V223.47ZM242.771 223.47V222.47H241.771V223.47H242.771ZM242.771 244.19H241.771V244.95L242.503 245.154L242.771 244.19ZM253.621 247.2L254.515 247.647L255.058 246.561L253.888 246.236L253.621 247.2ZM252.221 250V251H252.839L253.115 250.447L252.221 250ZM227.441 250H226.441V251H227.441V250ZM227.441 247.83L226.822 247.044L226.441 247.345V247.83H227.441ZM234.021 242.65L234.639 243.436L235.021 243.135V242.65H234.021ZM234.021 200.23H235.021V199.511L234.34 199.282L234.021 200.23ZM226.741 197.78L225.846 197.333L225.332 198.361L226.422 198.728L226.741 197.78ZM228.141 194.98V193.98H227.523L227.246 194.533L228.141 194.98ZM268.741 194.98V195.98H268.9L269.052 195.93L268.741 194.98ZM272.591 193.72H273.591V192.341L272.28 192.77L272.591 193.72ZM272.274 208.871L270.174 209.571L270.807 211.469L272.907 210.769L272.274 208.871ZM271.321 209.962L262.991 197.572L261.331 198.688L269.661 211.078L271.321 209.962ZM262.161 197.13H242.841V199.13H262.161V197.13ZM241.841 198.13V220.32H243.841V198.13H241.841ZM242.841 221.32H253.831V219.32H242.841V221.32ZM254.699 220.815L259.809 211.855L258.072 210.865L252.962 219.825L254.699 220.815ZM258.941 212.36H261.111V210.36H258.941V212.36ZM260.111 211.36V230.54H262.111V211.36H260.111ZM260.663 229.646L257.863 231.046L258.758 232.834L261.558 231.434L260.663 229.646ZM259.204 231.49L254.934 223.02L253.148 223.92L257.418 232.39L259.204 231.49ZM254.041 222.47H242.771V224.47H254.041V222.47ZM241.771 223.47V244.19H243.771V223.47H241.771ZM242.503 245.154L253.353 248.164L253.888 246.236L243.038 243.226L242.503 245.154ZM252.726 246.753L251.326 249.553L253.115 250.447L254.515 247.647L252.726 246.753ZM252.221 249H227.441V251H252.221V249ZM228.441 250V247.83H226.441V250H228.441ZM228.059 248.616L234.639 243.436L233.402 241.864L226.822 247.044L228.059 248.616ZM235.021 242.65V200.23H233.021V242.65H235.021ZM234.34 199.282L227.06 196.832L226.422 198.728L233.702 201.178L234.34 199.282ZM227.635 198.227L229.035 195.427L227.246 194.533L225.846 197.333L227.635 198.227ZM228.141 195.98H268.741V193.98H228.141V195.98ZM269.052 195.93L272.902 194.67L272.28 192.77L268.43 194.03L269.052 195.93ZM271.591 193.72V209.82H273.591V193.72H271.591ZM320.85 250L321.166 249.051L321.012 249H320.85V250ZM278.85 250H277.85V251H278.85V250ZM278.85 247.83L278.231 247.044L277.85 247.345V247.83H278.85ZM285.43 242.65L286.048 243.436L286.43 243.135V242.65H285.43ZM285.43 200.23H286.43V199.511L285.749 199.282L285.43 200.23ZM278.15 197.78L277.255 197.333L276.741 198.361L277.831 198.728L278.15 197.78ZM279.55 194.98V193.98H278.932L278.655 194.533L279.55 194.98ZM320.15 194.98V195.98H320.312L320.466 195.929L320.15 194.98ZM323.93 193.72H324.93V192.333L323.613 192.771L323.93 193.72ZM323.93 209.82L324.246 210.769L324.93 210.541V209.82H323.93ZM321.83 210.52L321 211.078L321.424 211.709L322.146 211.469L321.83 210.52ZM313.5 198.13L314.329 197.572L314.032 197.13H313.5V198.13ZM294.18 198.13V197.13H293.18V198.13H294.18ZM294.18 220.32H293.18V221.32H294.18V220.32ZM305.17 220.32V221.32H305.75L306.038 220.815L305.17 220.32ZM310.28 211.36V210.36H309.699L309.411 210.865L310.28 211.36ZM312.45 211.36H313.45V210.36H312.45V211.36ZM312.45 232.64L312.897 233.534L313.45 233.258V232.64H312.45ZM309.65 234.04L308.727 234.425L309.139 235.413L310.097 234.934L309.65 234.04ZM305.24 223.47L306.163 223.085L305.906 222.47H305.24V223.47ZM294.18 223.47V222.47H293.18V223.47H294.18ZM294.18 246.85H293.18V247.85H294.18V246.85ZM313.22 246.85V247.85H313.751L314.048 247.41L313.22 246.85ZM322.53 233.06L322.846 232.111L322.126 231.871L321.701 232.5L322.53 233.06ZM324.63 233.76H325.63V233.039L324.946 232.811L324.63 233.76ZM324.63 251.26L324.313 252.209L325.63 252.647V251.26H324.63ZM320.85 249H278.85V251H320.85V249ZM279.85 250V247.83H277.85V250H279.85ZM279.468 248.616L286.048 243.436L284.811 241.864L278.231 247.044L279.468 248.616ZM286.43 242.65V200.23H284.43V242.65H286.43ZM285.749 199.282L278.469 196.832L277.831 198.728L285.111 201.178L285.749 199.282ZM279.044 198.227L280.444 195.427L278.655 194.533L277.255 197.333L279.044 198.227ZM279.55 195.98H320.15V193.98H279.55V195.98ZM320.466 195.929L324.246 194.669L323.613 192.771L319.833 194.031L320.466 195.929ZM322.93 193.72V209.82H324.93V193.72H322.93ZM323.613 208.871L321.513 209.571L322.146 211.469L324.246 210.769L323.613 208.871ZM322.659 209.962L314.329 197.572L312.67 198.688L321 211.078L322.659 209.962ZM313.5 197.13H294.18V199.13H313.5V197.13ZM293.18 198.13V220.32H295.18V198.13H293.18ZM294.18 221.32H305.17V219.32H294.18V221.32ZM306.038 220.815L311.148 211.855L309.411 210.865L304.301 219.825L306.038 220.815ZM310.28 212.36H312.45V210.36H310.28V212.36ZM311.45 211.36V232.64H313.45V211.36H311.45ZM312.002 231.746L309.202 233.146L310.097 234.934L312.897 233.534L312.002 231.746ZM310.573 233.655L306.163 223.085L304.317 223.855L308.727 234.425L310.573 233.655ZM305.24 222.47H294.18V224.47H305.24V222.47ZM293.18 223.47V246.85H295.18V223.47H293.18ZM294.18 247.85H313.22V245.85H294.18V247.85ZM314.048 247.41L323.358 233.62L321.701 232.5L312.391 246.29L314.048 247.41ZM322.213 234.009L324.313 234.709L324.946 232.811L322.846 232.111L322.213 234.009ZM323.63 233.76V251.26H325.63V233.76H323.63ZM324.946 250.311L321.166 249.051L320.533 250.949L324.313 252.209L324.946 250.311ZM375.061 250L375.378 249.051L375.224 249H375.061V250ZM333.061 250H332.061V251H333.061V250ZM333.061 247.83L332.443 247.044L332.061 247.345V247.83H333.061ZM339.641 242.65L340.26 243.436L340.641 243.135V242.65H339.641ZM339.641 200.23H340.641V199.511L339.96 199.282L339.641 200.23ZM332.361 197.78L331.467 197.333L330.953 198.361L332.042 198.728L332.361 197.78ZM333.761 194.98V193.98H333.143L332.867 194.533L333.761 194.98ZM374.361 194.98V195.98H374.524L374.678 195.929L374.361 194.98ZM378.141 193.72H379.141V192.333L377.825 192.771L378.141 193.72ZM378.141 209.82L378.458 210.769L379.141 210.541V209.82H378.141ZM376.041 210.52L375.211 211.078L375.636 211.709L376.358 211.469L376.041 210.52ZM367.711 198.13L368.541 197.572L368.244 197.13H367.711V198.13ZM348.391 198.13V197.13H347.391V198.13H348.391ZM348.391 220.32H347.391V221.32H348.391V220.32ZM359.381 220.32V221.32H359.962L360.25 220.815L359.381 220.32ZM364.491 211.36V210.36H363.91L363.623 210.865L364.491 211.36ZM366.661 211.36H367.661V210.36H366.661V211.36ZM366.661 232.64L367.109 233.534L367.661 233.258V232.64H366.661ZM363.861 234.04L362.938 234.425L363.351 235.413L364.309 234.934L363.861 234.04ZM359.451 223.47L360.374 223.085L360.118 222.47H359.451V223.47ZM348.391 223.47V222.47H347.391V223.47H348.391ZM348.391 246.85H347.391V247.85H348.391V246.85ZM367.431 246.85V247.85H367.963L368.26 247.41L367.431 246.85ZM376.741 233.06L377.058 232.111L376.337 231.871L375.913 232.5L376.741 233.06ZM378.841 233.76H379.841V233.039L379.158 232.811L378.841 233.76ZM378.841 251.26L378.525 252.209L379.841 252.647V251.26H378.841ZM375.061 249H333.061V251H375.061V249ZM334.061 250V247.83H332.061V250H334.061ZM333.68 248.616L340.26 243.436L339.023 241.864L332.443 247.044L333.68 248.616ZM340.641 242.65V200.23H338.641V242.65H340.641ZM339.96 199.282L332.68 196.832L332.042 198.728L339.322 201.178L339.96 199.282ZM333.256 198.227L334.656 195.427L332.867 194.533L331.467 197.333L333.256 198.227ZM333.761 195.98H374.361V193.98H333.761V195.98ZM374.678 195.929L378.458 194.669L377.825 192.771L374.045 194.031L374.678 195.929ZM377.141 193.72V209.82H379.141V193.72H377.141ZM377.825 208.871L375.725 209.571L376.358 211.469L378.458 210.769L377.825 208.871ZM376.871 209.962L368.541 197.572L366.881 198.688L375.211 211.078L376.871 209.962ZM367.711 197.13H348.391V199.13H367.711V197.13ZM347.391 198.13V220.32H349.391V198.13H347.391ZM348.391 221.32H359.381V219.32H348.391V221.32ZM360.25 220.815L365.36 211.855L363.623 210.865L358.513 219.825L360.25 220.815ZM364.491 212.36H366.661V210.36H364.491V212.36ZM365.661 211.36V232.64H367.661V211.36H365.661ZM366.214 231.746L363.414 233.146L364.309 234.934L367.109 233.534L366.214 231.746ZM364.784 233.655L360.374 223.085L358.528 223.855L362.938 234.425L364.784 233.655ZM359.451 222.47H348.391V224.47H359.451V222.47ZM347.391 223.47V246.85H349.391V223.47H347.391ZM348.391 247.85H367.431V245.85H348.391V247.85ZM368.26 247.41L377.57 233.62L375.913 232.5L366.603 246.29L368.26 247.41ZM376.425 234.009L378.525 234.709L379.158 232.811L377.058 232.111L376.425 234.009ZM377.841 233.76V251.26H379.841V233.76H377.841ZM379.158 250.311L375.378 249.051L374.745 250.949L378.525 252.209L379.158 250.311Z" fill="black" fill-opacity="0.7" mask="url(#path-6-outside-1_37_28)"/>
</g>
</g>
<defs>
<filter id="filter0_d_37_28" x="55.5" y="107.64" width="327.341" height="151.76" filterUnits="userSpaceOnUse" color-interpolation-filters="sRGB">
<feFlood flood-opacity="0" result="BackgroundImageFix"/>
<feColorMatrix in="SourceAlpha" type="matrix" values="0 0 0 0 0 0 0 0 0 0 0 0 0 0 0 0 0 0 127 0" result="hardAlpha"/>
<feOffset dy="4"/>
<feGaussianBlur stdDeviation="2"/>
<feComposite in2="hardAlpha" operator="out"/>
<feColorMatrix type="matrix" values="0 0 0 0 0 0 0 0 0 0 0 0 0 0 0 0 0 0 0.25 0"/>
<feBlend mode="normal" in2="BackgroundImageFix" result="effect1_dropShadow_37_28"/>
<feBlend mode="normal" in="SourceGraphic" in2="effect1_dropShadow_37_28" result="shape"/>
</filter>
<clipPath id="clip0_37_28">
<rect width="506" height="347" fill="white"/>
</clipPath>
</defs>
</svg>
